<svg width="33" height="33" viewBox="0 0 33 33" fill="none" xmlns="http://www.w3.org/2000/svg">
<g clip-path="url(#clip0_234_36)">
<path d="M24.9616 11.4942L23.566 10.058C23.5371 10.0272 23.5021 10.0029 23.4633 9.98654C23.4244 9.97021 23.3825 9.96226 23.3403 9.9632C23.2981 9.96144 23.2559 9.96902 23.2169 9.9854C23.1779 10.0018 23.143 10.0266 23.1147 10.058L13.437 19.8068L9.91583 16.2857C9.88717 16.2556 9.85269 16.2316 9.81448 16.2152C9.77628 16.1988 9.73514 16.1904 9.69357 16.1904C9.65201 16.1904 9.61087 16.1988 9.57267 16.2152C9.53446 16.2316 9.49998 16.2556 9.47132 16.2857L8.0588 17.6982C8.02879 17.7276 8.00494 17.7627 7.98866 17.8014C7.97238 17.8402 7.96399 17.8818 7.96399 17.9238C7.96399 17.9658 7.97238 18.0074 7.98866 18.0462C8.00494 18.0849 8.02879 18.12 8.0588 18.1495L12.5017 22.5923C12.7427 22.8552 13.0746 23.0165 13.4302 23.0436C13.7794 23.0128 14.106 22.8579 14.3508 22.607H14.3564L24.9616 11.9455C25.0171 11.8834 25.0478 11.8031 25.0478 11.7198C25.0478 11.6366 25.0171 11.5562 24.9616 11.4942Z" fill="#010101"/>
<path d="M16.5 2.22144C19.8019 2.22295 23.0011 3.3692 25.5526 5.46491C28.1041 7.56062 29.8501 10.4762 30.4931 13.7148C31.1362 16.9534 30.6364 20.3149 29.079 23.2264C27.5217 26.1379 25.003 28.4194 21.9522 29.6822C18.9014 30.945 15.5071 31.111 12.3476 30.1519C9.18806 29.1928 6.45883 27.1679 4.62482 24.4222C2.7908 21.6766 1.96547 18.3799 2.28942 15.094C2.61337 11.8081 4.06657 8.7361 6.40144 6.40144C7.72466 5.07151 9.29854 4.01728 11.032 3.29977C12.7654 2.58227 14.624 2.21575 16.5 2.22144ZM16.5 1.54341e-07C13.2366 1.54341e-07 10.0465 0.967708 7.3331 2.78075C4.61969 4.59379 2.50484 7.17074 1.256 10.1857C0.0071491 13.2007 -0.319606 16.5183 0.31705 19.719C0.953707 22.9197 2.52518 25.8597 4.83275 28.1673C7.14031 30.4748 10.0803 32.0463 13.281 32.683C16.4817 33.3196 19.7993 32.9929 22.8143 31.744C25.8293 30.4952 28.4062 28.3803 30.2193 25.6669C32.0323 22.9535 33 19.7634 33 16.5C33.0003 14.3331 32.5737 12.1874 31.7446 10.1854C30.9155 8.18336 29.7002 6.3643 28.1679 4.83208C26.6357 3.29985 24.8166 2.08448 22.8146 1.25538C20.8126 0.426286 18.6669 -0.000296234 16.5 1.54341e-07Z" fill="#010101"/>
</g>
<defs>
<clipPath id="clip0_234_36">
<rect width="33" height="33" fill="white"/>
</clipPath>
</defs>
</svg>
